<svg width="25" height="24" viewBox="0 0 25 24" fill="none" xmlns="http://www.w3.org/2000/svg">
<path d="M12 24C18.6274 24 24 18.6274 24 12C24 5.37258 18.6274 0 12 0C5.37258 0 0 5.37258 0 12C0 18.6274 5.37258 24 12 24Z" fill="white"/>
<path d="M24.0011 10.7175C23.9605 10.3667 23.9056 10.0207 23.8364 9.67941H19.9588L23.0006 7.12708C22.7445 6.57356 22.4459 6.04013 22.1072 5.53147L17.1366 9.67941H15.0325L21.2959 4.45297C21.105 4.22633 20.9066 4.00685 20.7008 3.79454L14.4559 9.0086V0.388401C14.1473 0.32501 13.8339 0.273343 13.5156 0.233398V10.7188L24.0011 10.7175Z" fill="white"/>
<path d="M13.5156 24.0005C13.8277 23.9597 14.1358 23.907 14.44 23.8423V15.5076L20.2908 20.6654C20.7533 20.2066 21.179 19.7104 21.5636 19.1817L16.61 14.805H18.6766L22.3112 18.0157C22.4412 17.7817 22.5713 17.5418 22.6857 17.2978L19.8533 14.805H23.5659C23.6478 14.458 23.716 14.1057 23.7681 13.748H13.5156V24.0005Z" fill="white"/>
<path d="M10.7198 0.233398C10.409 0.266743 10.1023 0.31178 9.79964 0.36851V9.0137L3.57928 3.69044C3.18112 4.09482 2.81212 4.52723 2.47507 4.98439L7.97027 9.68276H5.91684L1.74087 6.1101C1.57686 6.39591 1.42446 6.68887 1.28369 6.98898L4.42519 9.68341H0.395163C0.326715 10.0238 0.273119 10.3689 0.234375 10.7188H10.7198V0.233398Z" fill="white"/>
<path d="M9.79663 23.8633C10.0996 23.9211 10.4073 23.9669 10.7198 24.0005V13.748H0.234375C0.287178 14.1047 0.354696 14.456 0.436929 14.8021H4.39128L1.40036 17.4537C1.71079 18.0732 2.07287 18.6642 2.4826 19.2203L7.48933 14.8021H9.55447L3.35449 20.2756C3.5103 20.444 3.67088 20.6075 3.83621 20.7662L9.79663 15.5027V23.8633Z" fill="white"/>
<path d="M17.2217 9.55273L22.1348 5.48453C21.8889 5.1175 21.622 4.76435 21.3354 4.42676L15.1445 9.55273H17.2217Z" fill="#BD0034"/>
<path d="M16.5437 14.9126L21.6037 19.1069C21.8808 18.7491 22.1363 18.3764 22.3689 17.9905L18.6553 14.9126H16.5437Z" fill="#BD0034"/>
<path d="M7.92408 9.55375L2.3743 4.89355C2.1061 5.25146 1.85854 5.62402 1.63281 6.00948L5.85025 9.55311L7.92408 9.55375Z" fill="#BD0034"/>
<path d="M7.5134 14.9132L2.56311 19.2414C2.83079 19.6012 3.11861 19.9453 3.42518 20.272L9.55334 14.9126L7.5134 14.9132Z" fill="#BD0034"/>
<path d="M20.7366 3.73211C19.0382 1.95625 16.8454 0.736789 14.4453 0.233398V9.08789L20.7366 3.73211Z" fill="#1A237B"/>
<path d="M9.78442 0.233032C7.39674 0.687631 5.20236 1.87473 3.49512 3.63538L9.78638 9.08752L9.78442 0.233032Z" fill="#1A237B"/>
<path d="M23.7659 9.55322C23.5814 8.67024 23.2941 7.8104 22.9094 6.99023L19.8047 9.55322H23.7659Z" fill="#1A237B"/>
<path d="M22.8257 17.2432C23.2337 16.4998 23.549 15.7184 23.7659 14.9131H19.8047L22.8257 17.2432Z" fill="#1A237B"/>
<path d="M9.78482 15.6113L3.72656 20.7462C5.40794 22.3025 7.51123 23.3511 9.78482 23.7667V15.6113Z" fill="#1A237B"/>
<path d="M14.4453 23.7667C16.6414 23.3067 18.6619 22.2283 20.2706 20.6574L14.4453 15.6113V23.7667Z" fill="#1A237B"/>
<path d="M0.464844 14.9131C0.68301 15.8019 1.00694 16.6622 1.42991 17.4761L4.4259 14.9131H0.464844Z" fill="#1A237B"/>
<path d="M1.15908 6.99023C0.739534 7.80714 0.429043 8.66773 0.234375 9.55322H4.42847L1.15908 6.99023Z" fill="#1A237B"/>
<path d="M10.7253 23.9324C11.6555 24.0311 12.594 24.0217 13.5219 23.9043V13.7897H23.8669C24.0223 12.7515 24.0417 11.6975 23.9246 10.6543H13.5219V0.0957484C12.594 -0.0216642 11.6555 -0.0311272 10.7253 0.0675487V10.6543H0.0754241C-0.0415694 11.6975 -0.0223886 12.7515 0.132484 13.7897H10.7253V23.9324Z" fill="#BD0034"/>
</svg>
