<svg width="28" height="19" viewBox="0 0 28 19" fill="none" xmlns="http://www.w3.org/2000/svg">
<path d="M21.1443 19H14.1173L9.43271 10.6696C8.49579 9.24149 10.6037 7.69437 11.775 9.47948L12.9462 11.2646V3.52876C12.9462 1.7439 15.2885 1.74377 15.2885 3.52876V7.69413C16.6939 6.74206 17.6306 7.09928 18.2162 8.28942C19.3874 7.69438 20.5585 8.28942 21.1441 9.47951C22.3153 8.88446 23.4864 10.0746 22.9008 11.8597L21.1443 19Z" fill="#C4C4C4"/>
<path d="M10.3693 3.38018H1M1 3.38018L3.92789 1M1 3.38018L3.92789 5.76036" stroke="#C4C4C4"/>
<path d="M17.6309 3.38018H27.0001M27.0001 3.38018L24.0722 1M27.0001 3.38018L24.0722 5.76036" stroke="#C4C4C4"/>
</svg>
